<svg xmlns="http://www.w3.org/2000/svg" id="Layer_3" viewBox="0 0 24.9 16.4"><style>.st0{fill:#f2eee8}</style><path d="M12.2 11.7c-.1 0-.3 0-.4-.1L.6 6.8c-.4-.2-.6-.6-.6-1s.2-.8.6-.9L11.8 0c.3-.1.5-.1.8 0l11.2 4.9c.4.2.6.5.6.9s-.2.8-.6.9l-11.2 4.9c-.1.1-.3.1-.4.1zM3.5 5.8l8.7 3.8 8.7-3.8L12.2 2 3.5 5.8z" class="st0"/><path d="M12.2 16.4c-3 0-6.1-.9-8.8-2.7-.2-.3-.4-.6-.4-.9V7.5c0-.6.4-1 1-1s1 .4 1 1v4.8c4.5 2.8 9.9 2.8 14.4 0V7.5c0-.6.4-1 1-1s1 .4 1 1v5.3c0 .3-.2.6-.4.8-2.7 1.8-5.8 2.8-8.8 2.8zM24 13.6c-.3 0-.5-.2-.5-.5V5.8c0-.3.2-.5.5-.5s.5.2.5.5v7.3c0 .3-.3.5-.5.5z" class="st0"/><path d="M24 14.1c-.6 0-1-.4-1-1V9.6c0-.6.4-1 1-1s1 .4 1 1v3.5c0 .6-.5 1-1 1z" class="st0"/></svg>