<svg xmlns="http://www.w3.org/2000/svg" width="18" height="15"><path fill="#FFF" fill-rule="evenodd" d="M16.707 12.679a.33.33 0 0 1-.321.321H1.606a.33.33 0 0 1-.321-.321V4.968c.211.241.442.462.693.662a138.293 138.293 0 0 1 4.277 3.394c.753.633 1.687 1.406 2.731 1.406h.02c1.044 0 1.978-.773 2.731-1.406a138.293 138.293 0 0 1 4.277-3.394c.251-.2.482-.421.693-.662v7.711zm0-10.553c0 .854-.823 1.968-1.476 2.48a662.05 662.05 0 0 0-4.026 3.183c-.532.432-1.496 1.356-2.199 1.356h-.02c-.703 0-1.667-.924-2.199-1.356a662.05 662.05 0 0 0-4.026-3.183c-.904-.713-1.476-1.707-1.476-2.851a.33.33 0 0 1 .321-.321h14.78c.381 0 .321.441.321.692zm1.285-.371c0-.884-.723-1.607-1.606-1.607H1.606C.723.148 0 .871 0 1.755v10.924c0 .883.723 1.606 1.606 1.606h14.78c.883 0 1.606-.723 1.606-1.606V1.755z"/></svg>