<svg xmlns="http://www.w3.org/2000/svg" width="15" height="29"><path fill="#FFF" fill-rule="evenodd" d="M14.814 8.163a.817.817 0 0 0-.569-.251c-.067 0-.134.017-.201.034l-6.629 1.64 2.863-7.75c.05-.1.083-.201.083-.301 0-.385-.334-.703-.753-.703h-5.49c-.352 0-.653.217-.737.535L.017 15.177a.658.658 0 0 0 .217.653.82.82 0 0 0 .519.184c.067 0 .134 0 .201-.017l6.796-1.69-3.297 13.525c-.084.351.133.703.502.82.083.017.167.033.234.033a.797.797 0 0 0 .703-.418L14.931 8.9a.666.666 0 0 0-.117-.737z"/></svg>