<svg xmlns="http://www.w3.org/2000/svg" width="39" height="25"><path fill="#FFF" fill-rule="evenodd" d="M24.054 12.972c0-.804-.084-1.423-.201-2.042H12.27v4.218h6.963c-.285 1.791-2.109 5.289-6.963 5.289-4.185 0-7.6-3.465-7.6-7.75s3.415-7.75 7.6-7.75c2.393 0 3.983 1.021 4.887 1.892l3.331-3.197C18.346 1.623 15.584.418 12.27.418 5.49.418 0 5.908 0 12.687c0 6.78 5.49 12.27 12.27 12.27 7.08 0 11.784-4.972 11.784-11.985zm14.512-2.042h-3.498V7.431h-3.515v3.499h-3.499v3.515h3.499v3.498h3.515v-3.498h3.498V10.93z"/></svg>