<svg xmlns="http://www.w3.org/2000/svg" xmlns:xlink="http://www.w3.org/1999/xlink" id="Layer_3" viewBox="0 0 23.7 23.6"><style>.st1{clip-path:url(#SVGID_4_);fill:#f2eee8}</style><defs><path id="SVGID_1_" d="M0 0h23.7v23.6H0z"/></defs><clipPath id="SVGID_2_"><use overflow="visible" xlink:href="#SVGID_1_"/></clipPath><g clip-path="url(#SVGID_2_)"><defs><path id="SVGID_3_" d="M0 0h23.7v23.6H0z"/></defs><clipPath id="SVGID_4_"><use overflow="visible" xlink:href="#SVGID_3_"/></clipPath><path d="M2.7 23.5c-1.4 0-2.4-.7-2.7-1.9-.4-1.9 1.6-3.9 3.6-4.8.9-.4 1.8-.6 2.6-.6 1.4 0 2.4.7 2.7 1.9.3 1.9-1.6 3.9-3.6 4.8-.9.4-1.8.6-2.6.6m3.5-5.3c-.5 0-1.1.2-1.7.5-1.6.8-2.6 2.1-2.5 2.7 0 .2.4.2.7.2.5 0 1.1-.2 1.7-.5 1.7-.8 2.6-2.1 2.5-2.7 0-.1-.4-.2-.7-.2" class="st1"/><path d="M6.9 4.6h2v13.7h-2zM17.4 20c-1.4 0-2.4-.7-2.7-1.9-.4-1.9 1.6-3.9 3.6-4.8.9-.4 1.8-.6 2.6-.6 1.4 0 2.4.7 2.7 1.9.3 1.9-1.6 3.9-3.6 4.8-.9.3-1.8.6-2.6.6m3.6-5.4c-.5 0-1.1.2-1.7.5-1.6.8-2.6 2.1-2.5 2.7 0 .2.4.2.7.2.5 0 1.1-.2 1.7-.5 1.6-.8 2.6-2.1 2.5-2.7-.1-.1-.5-.2-.7-.2" class="st1"/><path d="M21.7 1h2v13.7h-2z" class="st1"/><path d="M7.9 10.2c-.2 0-.4-.1-.6-.2-.2-.2-.4-.5-.4-.8V4.6c0-.5.3-.9.8-1L22.4 0c.3-.1.6 0 .9.2.2.2.4.5.4.8v4.6c0 .5-.3.9-.8 1L8.2 10.2h-.3m1-4.8V8l12.7-3.1V2.3L8.9 5.4zM2.7 23.5c-1.4 0-2.4-.7-2.7-1.9-.4-1.9 1.6-3.9 3.6-4.8.9-.4 1.8-.6 2.6-.6 1.4 0 2.4.7 2.7 1.9.3 1.9-1.6 3.9-3.6 4.8-.9.4-1.8.6-2.6.6m3.5-5.3c-.5 0-1.1.2-1.7.5-1.6.8-2.6 2.1-2.5 2.7 0 .2.4.2.7.2.5 0 1.1-.2 1.7-.5 1.7-.8 2.6-2.1 2.5-2.7 0-.1-.4-.2-.7-.2" class="st1"/><path d="M6.9 4.6h2v13.7h-2zM17.4 20c-1.4 0-2.4-.7-2.7-1.9-.4-1.9 1.6-3.9 3.6-4.8.9-.4 1.8-.6 2.6-.6 1.4 0 2.4.7 2.7 1.9.3 1.9-1.6 3.9-3.6 4.8-.9.3-1.8.6-2.6.6m3.6-5.4c-.5 0-1.1.2-1.7.5-1.6.8-2.6 2.1-2.5 2.7 0 .2.4.2.7.2.5 0 1.1-.2 1.7-.5 1.6-.8 2.6-2.1 2.5-2.7-.1-.1-.5-.2-.7-.2" class="st1"/><path d="M21.7 1h2v13.7h-2z" class="st1"/><path d="M7.9 10.2c-.2 0-.4-.1-.6-.2-.2-.2-.4-.5-.4-.8V4.6c0-.5.3-.9.8-1L22.4 0c.3-.1.6 0 .9.2.2.2.4.5.4.8v4.6c0 .5-.3.9-.8 1L8.2 10.2h-.3m1-4.8V8l12.7-3.1V2.3L8.9 5.4z" class="st1"/></g></svg>