<svg xmlns="http://www.w3.org/2000/svg" width="30" height="24"><path fill="#FFF" fill-rule="evenodd" d="M21.426 10.073a1.08 1.08 0 0 1-1.072 1.072c-4.117 0-6.712 1.088-9.742 3.816-.803.753-1.54 1.557-2.36 2.293-.217.201-.452.318-.753.318a1.078 1.078 0 0 1-1.071-1.071c0-.301.117-.536.318-.753 3.866-4.269 7.683-6.746 13.608-6.746.586 0 1.072.485 1.072 1.071zm8.57-3.314c0-1.423-.619-6.327-2.511-6.327-1.406 0-1.858.786-2.778 1.64-2.327 2.21-9.625.887-13.057 2.025-4.754 1.574-8.989 5.374-8.989 10.697 0 .585.051 1.171.151 1.74.067.335.502 1.222.502 1.373 0 .971-3.314 2.327-3.314 4.068 0 .351.117.452.268.736.452.77.77 1.289 1.824 1.289 1.457 0 2.461-3.415 3.298-3.415.669 0 2.276 1.055 3.08 1.323 1.523.519 3.18.786 4.787.786 2.545 0 5.072-.669 7.332-1.807 4.653-2.31 8.001-5.692 9.072-10.897.218-1.072.335-2.16.335-3.231z"/></svg>