<svg xmlns="http://www.w3.org/2000/svg" xmlns:xlink="http://www.w3.org/1999/xlink" id="Layer_3" viewBox="0 0 18.3 22.6"><style>.st1{clip-path:url(#SVGID_4_);fill:#f2eee8}</style><defs><path id="SVGID_1_" d="M0 0h18.3v22.6H0z"/></defs><clipPath id="SVGID_2_"><use overflow="visible" xlink:href="#SVGID_1_"/></clipPath><g clip-path="url(#SVGID_2_)"><defs><path id="SVGID_3_" d="M0 0h18.3v22.6H0z"/></defs><clipPath id="SVGID_4_"><use overflow="visible" xlink:href="#SVGID_3_"/></clipPath><path d="M15.9 16c-.1 0-.3 0-.4-.1-.7-.3-1.5-.6-2.3-.8l.5-1.9c.6.2 1.1.3 1.7.6.4-1.1.7-2.3.7-3.5 0-4.6-3.1-8.3-7-8.3-3.8 0-6.9 3.7-6.9 8.2 0 1.2.2 2.4.7 3.5.5-.2 1.1-.4 1.7-.6l.5 1.9c-.8.2-1.6.5-2.3.8-.5.2-1.1 0-1.3-.4C.6 13.8.2 12 .2 10.1.2 4.6 4.2 0 9.1 0S18 4.6 18 10.2c0 1.9-.5 3.7-1.3 5.3-.1.3-.5.5-.8.5" class="st1"/><path d="M9.1 17.2h-.5C6 16.9 4 14.4 3.2 10.3c-.1-.4-.2-.8-.2-1.2 0-.1 0-.3.1-.4.1-.1.2-.2.4-.2h2.7l.5-3.2c0-.2.2-.4.5-.4.2 0 .5.2.5.4l.4 3.2h.7L9 7c0-.3.2-.4.5-.4s.5.2.5.4l.2 1.5h4.6c.1 0 .3.1.4.2.1.1.1.2.1.4 0 .4-.1.8-.2 1.2-.5 2.2-1.2 3.9-2.3 5.1l-.2.2-.4-.3.4.3c-.2.2-.3.3-.4.3l-.4-.3.3.4c-.1.1-.2.2-.4.2l-.1.1c-.1.1-.2.1-.4.2l-.1.1c-.1 0-.2.1-.3.1h-.1c-.1 0-.2.1-.3.1l-.3-.4.1.5h-.1c-.1 0-.2 0-.3.1h-.2c-.1.2-.2.2-.5.2zm.4-1l.2.5-.1-.5h.2l.2.5v-.6c.1 0 .2-.1.3-.1.2-.1.3-.1.4-.1.2-.1.3-.1.4-.2.2-.1.3-.2.4-.2.2-.1.3-.2.4-.3l.1-.1.2-.2c.9-1 1.6-2.6 2.1-4.6 0-.2.1-.4.1-.6H7.7c-.3 0-.5-.2-.5-.4v-.1.1c0 .2-.2.4-.5.4H4.1c0 .2.1.4.1.6.7 3.6 2.4 5.8 4.6 6h.4c.1-.1.2-.1.3-.1" class="st1"/><path d="M2 22.6H0c0-3.7 3.2-6.8 7.2-6.8v2C4.3 17.9 2 20 2 22.6M18.3 22.6h-2c0-2.6-2.3-4.8-5.2-4.8v-2c3.9.1 7.2 3.1 7.2 6.8M7 10.3c-.3 0-.6.3-.6.6s.3.6.6.6.6-.3.6-.6-.2-.6-.6-.6M11.2 10.3c-.3 0-.6.3-.6.6s.3.6.6.6.6-.3.6-.6-.2-.6-.6-.6" class="st1"/></g></svg>