<svg xmlns="http://www.w3.org/2000/svg" overflow="scroll" viewBox="0 0 270.2 78.8"><style>.st2{fill:#1baf5d}.st3{fill:#8dc63f}.st4{fill:#fff}</style><path fill="#d1d3d4" d="M62.6 31.9c1.4-3.1 2.1-6.6 2.1-10.2C64.8 7.5 53.3 0 39.3 0 25.2 0 13.7 7.5 13.7 21.6c0 3.6.8 7.1 2.1 10.2l.1.3.9 1.8 22.3 44.9L61.5 34l.9-1.8.2-.3z"/><path fill="#e6e7e8" d="M39.2 78.8L61.6 34l.9-1.8.1-.3c1.4-3.1 2.1-6.6 2.1-10.2C64.8 7.5 53.3 0 39.3 0"/><path d="M39.2 21.9c0 11.2.7 20.3 11.9 20.3 11.2 0 20.3-9.1 20.3-20.3 0-11.2-9.1-20.3-20.3-20.3-4.2 0-8.1 1.3-11.3 3.5l1.8 4.1s1.9 2.3 5.2-.5l.3 2-7.9 11.2" class="st2"/><path d="M67.4 16.1l3.7 2 7.4 20s-21.4 5.4-27.3 4.2c-6-1.2-5.9-6.2-5.9-6.2s24.6 9.1 22.1-20" class="st2"/><path d="M39.2 21.9c0 11.2-.7 20.3-11.9 20.3C16.1 42.2 7 33.1 7 21.9 7 10.7 16.1 1.6 27.3 1.6c4.2 0 8.1 1.3 11.3 3.5l-1.8 4.1s-1.9 2.3-5.2-.5l-.3 2 7.9 11.2" class="st3"/><path d="M39.2 21.9c0 6.6-5.3 11.9-11.9 11.9-6.6 0-11.9-5.3-11.9-11.9 0-6.6 5.3-11.9 11.9-11.9 6.6 0 11.9 5.4 11.9 11.9" class="st3"/><path d="M27.3 12.2c-5.4 0-9.8 4.4-9.8 9.8s4.4 9.8 9.8 9.8 9.8-4.4 9.8-9.8c0-5.5-4.4-9.8-9.8-9.8m0 23.8c-7.7 0-14-6.3-14-14s6.3-14 14-14 14 6.3 14 14c.1 7.7-6.2 14-14 14" class="st4"/><path d="M63 21.9c0 6.6-5.3 11.9-11.9 11.9-6.6 0-11.9-5.3-11.9-11.9 0-6.6 5.3-11.9 11.9-11.9C57.7 10 63 15.4 63 21.9" class="st2"/><path d="M51.1 12.2c-5.4 0-9.8 4.4-9.8 9.8s4.4 9.8 9.8 9.8 9.8-4.4 9.8-9.8c0-5.5-4.4-9.8-9.8-9.8m0 23.8c-7.7 0-14-6.3-14-14s6.3-14 14-14 14 6.3 14 14c.1 7.7-6.2 14-14 14" class="st4"/><path d="M33.2 21.9c0 3.2-2.6 5.9-5.9 5.9-3.2 0-5.9-2.6-5.9-5.9 0-3.2 2.6-5.9 5.9-5.9 3.3.1 5.9 2.7 5.9 5.9m23.6 0c0 3.2-2.6 5.9-5.9 5.9-3.2 0-5.9-2.6-5.9-5.9 0-3.2 2.6-5.9 5.9-5.9 3.3.1 5.9 2.7 5.9 5.9"/><path d="M11.1 16.1l-3.7 2-7.4 20s21.4 5.4 27.3 4.2c6-1.2 5.9-6.2 5.9-6.2s-24.7 9.1-22.1-20" class="st3"/><path fill="#4c5b6a" d="M104 47.7c1.1 0 2.1-.1 3-.3.9-.2 1.9-.6 2.9-1.2v-17c-.8-.3-1.6-.6-2.4-.8-.8-.2-1.8-.3-2.7-.3-1.2 0-2.3.3-3.3.8-.9.5-1.7 1.2-2.4 2-.7.9-1.1 1.9-1.5 3-.3 1.1-.5 2.4-.5 3.6 0 1.3.1 2.6.4 3.8.3 1.2.7 2.3 1.3 3.3.6.9 1.3 1.7 2.1 2.3.9.5 1.9.8 3.1.8m-.1-24.9c1.4 0 2.6.2 3.6.5s1.8.7 2.4 1.2V10h7v32.4c0 .8 0 1.6.1 2.4.1.9.2 1.7.4 2.6.2.9.4 1.7.6 2.6.3.9.6 1.7.9 2.5h-6.6c-.2-.1-.4-.3-.6-.6-.2-.2-.4-.5-.6-.8-.2-.3-.3-.6-.5-.9-.1-.3-.3-.6-.4-.9-1 1.1-2.1 2-3.4 2.6-1.3.6-2.7.9-4.4.9-2 0-3.9-.4-5.5-1.2-1.6-.8-3-1.8-4.1-3.2-1.1-1.4-2-3-2.6-4.8-.6-1.9-.9-3.9-.9-6 0-2 .3-3.8 1-5.6.7-1.8 1.6-3.4 2.8-4.8 1.2-1.4 2.7-2.5 4.5-3.3 2.1-.7 4.1-1.1 6.3-1.1m26.9.4v20.1c0 .8.1 1.4.3 2 .2.6.5 1 .9 1.4.4.4.8.6 1.3.8.5.2 1.1.2 1.7.2 1.3 0 2.7-.2 4.1-.5 1.4-.3 2.7-.9 3.9-1.6V23.2h7.1v24.2c0 .5.1 1.1.2 2 .1.9.3 1.9.5 3.1h-6.7c0-.1-.1-.3-.2-.6s-.2-.6-.2-1c-.1-.3-.2-.7-.2-1-.1-.3-.1-.5-.1-.7-.6.5-1.3 1-2.1 1.5s-1.6.9-2.4 1.2c-.8.3-1.7.6-2.5.8-.9.2-1.7.3-2.4.3-2 0-3.6-.3-4.9-.8-1.3-.5-2.3-1.3-3.1-2.2-.8-.9-1.3-2-1.7-3.3-.3-1.2-.5-2.6-.5-4V23.2h7zM156.4 10h7v15.4c.4-.3.8-.6 1.3-1 .5-.3 1.1-.6 1.7-.9.6-.3 1.3-.5 2.1-.6.8-.2 1.6-.2 2.4-.2 1.8 0 3.3.2 4.8.7 1.4.5 2.6 1.2 3.6 2.1 1 .9 1.8 2 2.3 3.3.5 1.3.8 2.8.8 4.5v19.1h-7v-19c0-1.9-.5-3.3-1.4-4.2-1-.9-2.3-1.3-4-1.3-.5 0-1.1 0-1.6.1s-1 .2-1.6.3c-.5.1-1.1.3-1.6.5-.6.2-1.1.4-1.7.7v22.9h-7V10zm45.3 38.4c1.2 0 2.2-.3 3.1-1 .9-.7 1.6-1.5 2.1-2.6.6-1.1 1-2.3 1.2-3.6.3-1.3.4-2.7.4-4.1 0-1.3-.1-2.5-.4-3.6-.2-1.1-.6-2.2-1.2-3-.6-.9-1.3-1.5-2.2-2-.9-.5-2-.8-3.2-.8-1.1 0-2.1.3-3 .8-.9.5-1.6 1.2-2.2 2.2-.6.9-1 2-1.3 3.3-.3 1.3-.4 2.6-.4 4.1 0 1.2.1 2.4.4 3.6.3 1.2.7 2.4 1.2 3.4.6 1 1.3 1.8 2.2 2.5 1 .4 2 .8 3.3.8m.2 4.8c-2.4 0-4.5-.4-6.3-1.1-1.8-.7-3.4-1.8-4.6-3.2-1.2-1.4-2.2-3-2.8-4.9-.6-1.9-1-4.1-1-6.4 0-2 .3-3.9.9-5.7.6-1.8 1.5-3.4 2.7-4.7 1.2-1.4 2.7-2.4 4.6-3.2 1.8-.8 4-1.2 6.5-1.2s4.6.4 6.4 1.2c1.8.8 3.3 1.9 4.4 3.3 1.2 1.4 2 3 2.6 4.9.6 1.9.8 3.9.8 6s-.3 4-1 5.9c-.6 1.8-1.6 3.4-2.8 4.8-1.2 1.4-2.7 2.5-4.4 3.3-1.8.7-3.8 1-6 1m32.3-4.8c1.2 0 2.2-.3 3.1-1 .9-.7 1.6-1.5 2.1-2.6.6-1.1 1-2.3 1.2-3.6.3-1.3.4-2.7.4-4.1 0-1.3-.1-2.5-.4-3.6-.2-1.1-.6-2.2-1.2-3-.6-.9-1.3-1.5-2.2-2-.9-.5-2-.8-3.2-.8-1.1 0-2.1.3-3 .8-.9.5-1.6 1.2-2.2 2.2-.6.9-1 2-1.3 3.3-.3 1.3-.4 2.6-.4 4.1 0 1.2.1 2.4.4 3.6.3 1.2.7 2.4 1.2 3.4.6 1 1.3 1.8 2.2 2.5 1 .4 2.1.8 3.3.8m.2 4.8c-2.4 0-4.5-.4-6.3-1.1-1.8-.7-3.4-1.8-4.6-3.2-1.2-1.4-2.2-3-2.8-4.9-.6-1.9-1-4.1-1-6.4 0-2 .3-3.9.9-5.7.6-1.8 1.5-3.4 2.7-4.7 1.2-1.4 2.7-2.4 4.6-3.2 1.8-.8 4-1.2 6.5-1.2s4.6.4 6.4 1.2c1.8.8 3.3 1.9 4.4 3.3 1.2 1.4 2 3 2.6 4.9.6 1.9.8 3.9.8 6s-.3 4-1 5.9c-.6 1.8-1.6 3.4-2.8 4.8-1.2 1.4-2.7 2.5-4.4 3.3-1.8.7-3.8 1-6 1m15.8-28.5l4.3-1.5 1.8-7.6h5.2v7.6h7.2l-.7 5h-6.5v14.9c0 .8.1 1.5.2 2.1.1.6.3 1 .5 1.4.2.3.5.6.8.7.3.1.7.2 1.1.2.6 0 1.2-.1 2-.2.7-.1 1.5-.4 2.5-.7l1.6 3.4c-1.3 1-2.6 1.7-3.8 2.2-1.3.5-2.5.7-3.7.7-1.6 0-3-.2-4-.6-1-.4-1.9-1-2.5-1.8-.6-.8-1.1-1.7-1.3-2.9-.2-1.1-.4-2.4-.4-3.8V28.3h-4.3v-3.6z"/></svg>