<svg xmlns="http://www.w3.org/2000/svg" xmlns:xlink="http://www.w3.org/1999/xlink" id="Layer_3" viewBox="0 0 21.8 23.5"><style>.st1{clip-path:url(#SVGID_4_);fill:#f2eee8}</style><defs><path id="SVGID_1_" d="M.1 0h21.8v23.5H.1z"/></defs><clipPath id="SVGID_2_"><use overflow="visible" xlink:href="#SVGID_1_"/></clipPath><g clip-path="url(#SVGID_2_)"><defs><path id="SVGID_3_" d="M.1 0h21.8v23.5H.1z"/></defs><clipPath id="SVGID_4_"><use overflow="visible" xlink:href="#SVGID_3_"/></clipPath><path d="M20.8 20.6H1.1c-.6 0-1-.4-1-1V7c0-3.9 3.1-7 7-7h7.7c3.9 0 7 3.1 7 7v12.6c0 .6-.4 1-1 1m-18.7-2h17.8V7c0-2.8-2.2-5-5-5H7.1c-2.8 0-5 2.2-5 5v11.6z" class="st1"/><path d="M5.1 23.5c-1.9 0-3-.6-3-1.6v-1.4c0-.6.4-1 1-1s1 .4 1 1v.9c.2.1.6.1 1 .1s.8-.1 1-.1v-.9c0-.6.4-1 1-1s1 .4 1 1v1.4c0 1-1.1 1.6-3 1.6M16.8 23.5c-1.9 0-3-.6-3-1.6v-1.4c0-.6.4-1 1-1s1 .4 1 1v.9c.2.1.6.1 1 .1s.8-.1 1-.1v-.9c0-.6.4-1 1-1s1 .4 1 1v1.4c0 1-1.2 1.6-3 1.6M15.8 4.9H6.1c-.6 0-1-.4-1-1s.4-1 1-1h9.7c.6 0 1 .4 1 1s-.5 1-1 1M6.2 13.6c-.8 0-1.5.7-1.5 1.5s.7 1.5 1.5 1.5 1.5-.7 1.5-1.5-.7-1.5-1.5-1.5M15.7 13.6c-.8 0-1.5.7-1.5 1.5s.7 1.5 1.5 1.5 1.5-.7 1.5-1.5-.7-1.5-1.5-1.5M17.8 12.9H4.1c-.8 0-1.5-.7-1.5-1.5V7c0-.8.7-1.5 1.5-1.5h13.8c.8 0 1.5.7 1.5 1.5v4.4c-.1.8-.8 1.5-1.6 1.5M4.1 6.5c-.3 0-.5.3-.5.5v4.4c0 .3.2.5.5.5h13.8c.3 0 .5-.2.5-.5V7c0-.3-.2-.5-.5-.5H4.1z" class="st1"/></g></svg>