<svg xmlns="http://www.w3.org/2000/svg" xmlns:xlink="http://www.w3.org/1999/xlink" id="Layer_3" viewBox="0 0 26 19.6"><style>.st1{clip-path:url(#SVGID_4_);fill:#f2eee8}</style><defs><path id="SVGID_1_" d="M0 0h26v19.6H0z"/></defs><clipPath id="SVGID_2_"><use overflow="visible" xlink:href="#SVGID_1_"/></clipPath><g clip-path="url(#SVGID_2_)"><defs><path id="SVGID_3_" d="M0 0h26v19.6H0z"/></defs><clipPath id="SVGID_4_"><use overflow="visible" xlink:href="#SVGID_3_"/></clipPath><path d="M22 19.6h-6.4c-.6 0-1-.4-1-1v-6.3h-3.2v6.3c0 .6-.4 1-1 1H4c-.6 0-1-.4-1-1V8.2c0-.6.4-1 1-1s1 .4 1 1v9.4h4.4v-6.3c0-.6.4-1 1-1h5.2c.6 0 1 .4 1 1v6.3H21V8.2c0-.6.4-1 1-1s1 .4 1 1v10.4c0 .5-.5 1-1 1" class="st1"/><path d="M25 10.6c-.2 0-.4-.1-.6-.2L13 2.2 1.6 10.4c-.4.3-1.1.2-1.4-.2-.3-.4-.2-1.1.2-1.4l12-8.6c.3-.2.8-.2 1.2 0l12 8.6c.4.3.6.9.2 1.4-.2.3-.5.4-.8.4" class="st1"/></g></svg>