<svg xmlns="http://www.w3.org/2000/svg" width="17" height="17"><path fill="#F19E1F" fill-rule="evenodd" d="M16.707 6.914c0-.301-.321-.421-.562-.462l-5.04-.733-2.26-4.568C8.755.96 8.584.74 8.354.74c-.231 0-.402.22-.492.411l-2.26 4.568-5.04.733C.311 6.493 0 6.613 0 6.914c0 .181.131.352.251.482l3.655 3.554-.864 5.021c-.01.07-.02.13-.02.2 0 .261.131.502.422.502.14 0 .271-.05.401-.12l4.509-2.37 4.508 2.37c.12.07.261.12.401.12.291 0 .412-.241.412-.502 0-.07 0-.13-.01-.2l-.864-5.021 3.645-3.554c.131-.13.261-.301.261-.482z"/></svg>