<svg xmlns="http://www.w3.org/2000/svg" width="18" height="17"><path fill="#F19E1F" fill-rule="evenodd" d="M11.916 10.659l.723 4.227-3.785-1.998-3.796 1.998.733-4.227-3.072-2.982 4.237-.623 1.898-3.835 1.897 3.835 4.237.623-3.072 2.982zm5.291-3.585c0-.301-.321-.422-.562-.462l-5.04-.733-2.26-4.568c-.09-.191-.261-.412-.491-.412-.231 0-.402.221-.492.412l-2.26 4.568-5.04.733c-.251.04-.562.161-.562.462 0 .181.131.352.251.482l3.655 3.554-.864 5.021c-.01.07-.02.13-.02.2 0 .261.131.502.422.502.14 0 .271-.05.401-.12l4.509-2.37 4.508 2.37c.12.07.261.12.401.12.291 0 .412-.231.412-.502 0-.07 0-.13-.01-.2l-.864-5.021 3.645-3.554c.131-.13.261-.301.261-.482z"/></svg>