<svg xmlns="http://www.w3.org/2000/svg" width="26" height="31"><path fill="#FFF" fill-rule="evenodd" d="M16.253 21.512c0-.736-.217-1.121-.652-1.121-.251 0-.503.117-.754.368v5.039c.251.251.503.368.754.368.435 0 .652-.368.652-1.122v-3.532zm5.658.017c0-.753-.251-1.138-.753-1.138s-.753.385-.753 1.138v.77h1.506v-.77zM5.741 17.88v9.524H4.068V17.88H2.31v-1.573h5.223v1.573H5.741zm4.821 9.524v-.903c-.602.686-1.171 1.021-1.707 1.021-.486 0-.837-.201-.971-.62-.084-.251-.134-.636-.134-1.222v-6.545h1.49v6.093c0 .352 0 .536.017.586.033.235.15.352.351.352.301 0 .619-.235.954-.703v-6.328h1.49v8.269h-1.49zm7.181-2.477c0 .77-.033 1.322-.15 1.674-.185.603-.603.921-1.189.921-.536 0-1.054-.302-1.557-.921v.803h-1.489V16.307h1.489v3.632c.486-.603 1.005-.904 1.557-.904.586 0 1.004.318 1.189.937.117.335.15.888.15 1.658v3.297zm5.658-.167c0 .485 0 .82-.034.971a1.927 1.927 0 0 1-.351.903c-.402.586-1.021.888-1.808.888-.787 0-1.372-.285-1.808-.854-.318-.402-.485-1.055-.485-1.942V21.83c0-.887.151-1.523.469-1.941.435-.569 1.021-.854 1.791-.854.753 0 1.339.285 1.774.854.301.418.452 1.054.452 1.941v1.725h-2.996v1.456c0 .77.251 1.155.77 1.155.368 0 .586-.201.669-.603.017-.083.034-.418.034-1.021h1.523v.218zM13.224 9.477c0 .77-.218 1.172-.72 1.172-.485 0-.72-.402-.72-1.172V5.962c0-.77.235-1.155.72-1.155.502 0 .72.385.72 1.155v3.515zm12.035 12.571c0-1.942 0-3.984-.435-5.859-.302-1.322-1.39-2.293-2.678-2.443-3.08-.335-6.194-.335-9.291-.335-3.096 0-6.21 0-9.273.335-1.306.15-2.377 1.121-2.695 2.443-.418 1.875-.435 3.917-.435 5.859 0 1.925 0 3.984.435 5.859.301 1.322 1.389 2.293 2.678 2.427 3.08.351 6.194.351 9.29.351 3.097 0 6.211 0 9.291-.351 1.288-.134 2.36-1.105 2.678-2.427.418-1.875.435-3.934.435-5.859zM8.554.689L7.415 5.092 6.227.689H4.453c.351 1.038.719 2.093 1.088 3.13.535 1.557.87 2.729 1.021 3.549v4.536h1.674V7.368L10.261.689H8.554zm6.193 5.574c0-.887-.151-1.54-.469-1.958-.418-.569-1.004-.854-1.774-.854-.753 0-1.339.285-1.758.854-.318.418-.468 1.071-.468 1.958v2.93c0 .887.15 1.54.468 1.975.419.569 1.005.853 1.758.853.77 0 1.356-.284 1.774-.853.318-.419.469-1.088.469-1.975v-2.93zm5.607-2.711h-1.523v6.377c-.335.486-.653.72-.954.72-.201 0-.318-.134-.351-.368-.017-.034-.017-.235-.017-.586V3.552h-1.523v6.595c0 .602.05 1.004.134 1.255.15.419.502.619.987.619.553 0 1.122-.334 1.724-1.037v.92h1.523V3.552z"/></svg>